<?xml version="1.0" encoding="utf-8"?>
<!-- Generator: Adobe Illustrator 17.1.0, SVG Export Plug-In . SVG Version: 6.00 Build 0)  -->
<!DOCTYPE svg PUBLIC "-//W3C//DTD SVG 1.1//EN" "http://www.w3.org/Graphics/SVG/1.1/DTD/svg11.dtd">
<svg version="1.1" id="Layer_1" xmlns="http://www.w3.org/2000/svg" xmlns:xlink="http://www.w3.org/1999/xlink" x="0px" y="0px"
	 viewBox="0 0 77 77" enable-background="new 0 0 77 77" xml:space="preserve">
<path fill="#E50E73" d="M38.7,0C17.4-0.1,0.1,17.1,0,38.3C-0.1,59.6,17.1,76.9,38.3,77C59.6,77.1,76.9,59.9,77,38.7
	C77.1,17.4,59.9,0.1,38.7,0z M55.3,38.1c-0.1,0.2,0,0.1-0.1,0.2c-0.1,0.4-0.2,0.7-0.4,1.1c-0.1,0.1-0.1,0.1-0.1,0.2
	c-1.5,3.4-4.7,5.6-11.5,6.3c1.2,0.8,2.3,2.3,2.3,5.1v7.2c0,0,0.1,1.8,1.8,2.4c0,0,1,0.7-0.1,1c0,0-4.5,0.4-4.5-3.4v-5.5
	c0,0,0.2-2-0.9-2.9v9c0,0,0.1,2.2,1.2,3c0,0,0.7,1.3-0.9,1c0,0-3.1-0.4-3.3-4.1l-0.1-9.2H38L38,58.7c-0.1,3.7-3.3,4.1-3.3,4.1
	c-1.6,0.4-0.9-1-0.9-1c1.1-0.8,1.2-3,1.2-3v-9.1c-1.1,0.8-0.9,2.9-0.9,2.9v5.5c0,3.7-4.5,3.4-4.5,3.4c-1-0.4-0.1-1-0.1-1
	c1.6-0.6,1.8-2.4,1.8-2.4v-5.1c-7,1.6-8.5-3.3-8.5-3.3c-1.1-2.9-2.7-3.6-2.7-3.6c-2.3-1.5,0.2-1.5,0.2-1.5c2.5,0.2,3.8,2.6,3.8,2.6
	c2.3,4,6.2,2.6,7.4,2c0.4-1.7,1.3-2.8,2.2-3.4c-6.3-0.7-9.9-2.9-11.7-6.2l-0.1-0.2c-0.2-0.4-0.3-0.7-0.5-1.1c0-0.1,0-0.1-0.1-0.2
	c-0.6-1.8-0.9-3.9-0.9-6.2c0-3.1,1.1-5.6,2.9-7.5c-0.3-0.7-1.2-3.6,0.3-7.4c0,0,2.4-0.7,7.7,2.9c2.2-0.6,4.7-0.9,7-0.9
	c2.2,0,4.3,0.3,6.4,0.8c5.2-3.5,7.5-2.7,7.5-2.7c1.3,3.3,0.8,5.8,0.5,6.9c2,2,3.3,4.7,3.3,8C55.9,34.2,55.8,36.3,55.3,38.1z"/>
</svg>
