<?xml version="1.0" encoding="utf-8"?>
<!-- Generator: Adobe Illustrator 17.1.0, SVG Export Plug-In . SVG Version: 6.00 Build 0)  -->
<!DOCTYPE svg PUBLIC "-//W3C//DTD SVG 1.1//EN" "http://www.w3.org/Graphics/SVG/1.1/DTD/svg11.dtd">
<svg version="1.1" id="Layer_1" xmlns="http://www.w3.org/2000/svg" xmlns:xlink="http://www.w3.org/1999/xlink" x="0px" y="0px"
	 viewBox="0 0 77 77" enable-background="new 0 0 77 77" xml:space="preserve">
<path fill="#E50E73" d="M38.7,0C17.4-0.1,0.1,17.1,0,38.3C-0.1,59.6,17.1,76.9,38.3,77C59.6,77.1,76.9,59.9,77,38.7
	C77.1,17.4,59.9,0.1,38.7,0z M55.5,30.9l0,1c0,10.6-8.2,22.9-23.1,22.9c-4.6,0-8.9-1.3-12.5-3.6c0.6,0.1,1.3,0.1,1.9,0.1
	c3.8,0,7.3-1.3,10.1-3.4c-3.6-0.1-6.6-2.4-7.6-5.6c0.5,0.1,1,0.1,1.5,0.1c0.7,0,1.5-0.1,2.1-0.3c-3.7-0.7-6.5-4-6.5-7.9v-0.1
	c1.1,0.6,2.3,1,3.7,1c-2.2-1.4-3.6-3.9-3.6-6.7c0-1.5,0.4-2.9,1.1-4.1c4,4.9,10,8.1,16.8,8.4c-0.1-0.6-0.2-1.2-0.2-1.8
	c0-4.4,3.6-8.1,8.1-8.1c2.3,0,4.5,1,5.9,2.5c1.9-0.4,3.6-1,5.2-2c-0.6,1.9-1.9,3.5-3.6,4.5c1.6-0.2,3.2-0.6,4.7-1.3
	C58.5,28.3,57.1,29.7,55.5,30.9z"/>
</svg>
